<?xml version="1.0" encoding="UTF-8" standalone="no"?>
<!-- Created with Inkscape (http://www.inkscape.org/) -->

<svg
   xmlns:dc="http://purl.org/dc/elements/1.1/"
   xmlns:cc="http://creativecommons.org/ns#"
   xmlns:rdf="http://www.w3.org/1999/02/22-rdf-syntax-ns#"
   xmlns:svg="http://www.w3.org/2000/svg"
   xmlns="http://www.w3.org/2000/svg"
   xmlns:sodipodi="http://sodipodi.sourceforge.net/DTD/sodipodi-0.dtd"
   xmlns:inkscape="http://www.inkscape.org/namespaces/inkscape"
   width="210mm"
   height="297mm"
   viewBox="0 0 744.09448819 1052.3622047"
   id="svg2"
   version="1.1"
   inkscape:version="0.91 r13725"
   sodipodi:docname="Beer.svg">
  <defs
     id="defs4" />
  <sodipodi:namedview
     id="base"
     pagecolor="#ffffff"
     bordercolor="#666666"
     borderopacity="1.0"
     inkscape:pageopacity="0.0"
     inkscape:pageshadow="2"
     inkscape:zoom="0.49497475"
     inkscape:cx="-11.045722"
     inkscape:cy="491.8417"
     inkscape:document-units="px"
     inkscape:current-layer="layer1"
     showgrid="false"
     showborder="false"
     inkscape:window-width="1440"
     inkscape:window-height="897"
     inkscape:window-x="-8"
     inkscape:window-y="-8"
     inkscape:window-maximized="1" />
  <metadata
     id="metadata7">
    <rdf:RDF>
      <cc:Work
         rdf:about="">
        <dc:format>image/svg+xml</dc:format>
        <dc:type
           rdf:resource="http://purl.org/dc/dcmitype/StillImage" />
        <dc:title />
      </cc:Work>
    </rdf:RDF>
  </metadata>
  <g
     inkscape:label="Layer 1"
     inkscape:groupmode="layer"
     id="layer1">
    <path
       style="fill:#ffeeaa;fill-rule:evenodd;stroke:#000000;stroke-width:11.48244286;stroke-linecap:butt;stroke-linejoin:miter;stroke-miterlimit:4;stroke-dasharray:none;stroke-opacity:1"
       d="m 224.39612,433.44916 c 0,0 -41.00873,-3.2807 -57.41222,-32.80698 -16.40348,-29.52627 -4.92105,-82.01745 31.16662,-83.65779 36.08769,-1.64036 55.77188,32.80698 55.77188,32.80698 0,0 -21.55344,-9.95574 -18.60672,-70.9813 2.27328,-47.07858 29.17034,-70.12693 58.92391,-71.55421 38.46275,-1.84505 56.46341,22.79002 56.46341,22.79002 0,0 -27.54546,-42.44956 5.19039,-86.82189 22.88333,-31.01756 64.14592,-48.484316 99.47636,-39.93126 23.3561,6.6266 40.45782,55.41068 40.45782,55.41068 0,0 44.71031,-27.54662 86.64507,-19.40542 42.85301,8.31945 38.09189,59.89687 38.09189,59.89687 -12.05399,64.19209 -4.89823,45.91269 -4.89823,45.91269 0,0 47.41085,-17.41841 68.74393,10.30548 21.19693,27.54695 4.47097,54.93371 -13.49519,66.25645 -23.855,15.03403 -42.02365,15.97708 -42.02365,15.97708 0,0 14.73753,0.0454 30.97616,7.65873 11.88176,5.5706 13.51494,15.87379 -3.74981,25.88172 -15.9145,9.22521 -20.13902,9.58051 -20.13902,9.58051 0,0 45.34129,10.96506 12.29837,41.33285 -29.70701,27.30193 -35.56457,5.86488 -35.56457,5.86488"
       id="path4174"
       inkscape:connector-curvature="0"
       sodipodi:nodetypes="csscsscsccsscsscsscsc" />
    <path
       inkscape:connector-curvature="0"
       id="rect4171"
       d="m 251.73242,415.29488 c -19.74994,0 -35.64844,15.89854 -35.64844,35.64844 l 0,42.37695 -157.474605,2.32422 c -37.418128,2.03904 -56.4707168,7.93596 -52.4902344,48.80078 l 0,141.61719 0,133.41602 c 0,40.92458 8.0632634,58.15241 51.6699214,56.18359 56.032448,1.29805 156.654298,1.50391 156.654298,1.50391 l 1.64062,44.01559 c 0.73551,19.7362 15.8985,35.6504 35.64844,35.6504 l 330.8086,0 c 19.74993,0 35.65039,-15.9005 35.65039,-35.6504 l 0,-470.23825 c 0,-19.74993 -15.90046,-35.64844 -35.65039,-35.64844 l -330.8086,0 z m -159.017576,149.38281 81.283206,0 c 19.74183,0 35.63476,15.89294 35.63476,35.63477 l 0,164.93945 c 0,19.74183 -15.89293,35.63477 -35.63476,35.63477 l -81.283206,0 c -19.741829,0 -35.634766,-15.89294 -35.634766,-35.63477 l 0,-164.93945 c 0,-19.74183 15.892937,-35.63476 35.634766,-35.63477 z"
       style="fill:#ffffff;fill-opacity:1;stroke:#000000;stroke-width:11.26046085;stroke-miterlimit:4;stroke-dasharray:none;stroke-opacity:1" />
    <rect
       style="fill:#c87137;fill-opacity:1;stroke:#000000;stroke-width:0.2;stroke-miterlimit:4;stroke-dasharray:none;stroke-opacity:1"
       id="rect4164"
       width="339.41125"
       height="458.60925"
       x="252.53813"
       y="458.39252"
       ry="26.2064" />
  </g>
  <g
     inkscape:groupmode="layer"
     id="layer4"
     inkscape:label="Layer 2">
    <rect
       ry="26.206379"
       y="523.66827"
       x="257.20303"
       height="321.50842"
       width="85.298141"
       id="rect4163"
       style="fill:#e9c6af;fill-opacity:1;stroke:#000000;stroke-width:11.48244286;stroke-miterlimit:4;stroke-dasharray:none;stroke-opacity:1" />
    <rect
       ry="26.206379"
       y="523.66827"
       x="378.5889"
       height="321.50842"
       width="85.298141"
       id="rect4165"
       style="fill:#d38d5f;fill-opacity:1;stroke:#000000;stroke-width:11.48244286;stroke-miterlimit:4;stroke-dasharray:none;stroke-opacity:1" />
    <rect
       style="fill:#a05a2c;fill-opacity:1;stroke:#000000;stroke-width:11.48244286;stroke-miterlimit:4;stroke-dasharray:none;stroke-opacity:1"
       id="rect4153"
       width="85.298141"
       height="321.50842"
       x="499.97473"
       y="523.66827"
       ry="26.206379" />
    <path
       style="fill:#ffeeaa;fill-rule:evenodd;stroke:#000000;stroke-width:12.02176857;stroke-linecap:butt;stroke-linejoin:miter;stroke-miterlimit:4;stroke-dasharray:none;stroke-opacity:1"
       d="m 320.90671,405.98474 c 0,0 -0.0535,25.66697 20.14372,60.82935 17.3925,30.27927 51.06383,19.74065 67.15683,0.30745 16.27415,-19.65195 14.09095,-62.71605 14.09095,-62.71605 0,0 -0.59962,39.04381 22.48555,47.95933 15.75186,6.08339 32.37918,2.76687 40.7738,-10.76008 8.39459,-13.52701 6.59576,-37.50665 6.59576,-37.50665 0,0 5.27272,20.96618 15.58998,28.89855 9.63256,7.40595 23.15319,7.48191 29.98074,-4.61146 5.38323,-9.53514 5.38255,-22.61507 5.38255,-22.61507"
       id="path4176"
       inkscape:connector-curvature="0"
       sodipodi:nodetypes="csscsscssc" />
  </g>
</svg>
