<?xml version="1.0" encoding="UTF-8" standalone="no"?>
<!-- Created with Inkscape (http://www.inkscape.org/) -->

<svg
   xmlns:dc="http://purl.org/dc/elements/1.1/"
   xmlns:cc="http://creativecommons.org/ns#"
   xmlns:rdf="http://www.w3.org/1999/02/22-rdf-syntax-ns#"
   xmlns:svg="http://www.w3.org/2000/svg"
   xmlns="http://www.w3.org/2000/svg"
   xmlns:sodipodi="http://sodipodi.sourceforge.net/DTD/sodipodi-0.dtd"
   xmlns:inkscape="http://www.inkscape.org/namespaces/inkscape"
   width="210mm"
   height="297mm"
   viewBox="0 0 744.09448819 1052.3622047"
   id="svg4157"
   version="1.1"
   inkscape:version="0.91 r13725"
   sodipodi:docname="Cheese.svg">
  <defs
     id="defs4159" />
  <sodipodi:namedview
     id="base"
     pagecolor="#ffffff"
     bordercolor="#666666"
     borderopacity="1.0"
     inkscape:pageopacity="0.0"
     inkscape:pageshadow="2"
     inkscape:zoom="0.70710678"
     inkscape:cx="414.76155"
     inkscape:cy="626.48702"
     inkscape:document-units="px"
     inkscape:current-layer="layer2"
     showgrid="false"
     inkscape:window-width="1440"
     inkscape:window-height="897"
     inkscape:window-x="-8"
     inkscape:window-y="-8"
     inkscape:window-maximized="1" />
  <metadata
     id="metadata4162">
    <rdf:RDF>
      <cc:Work
         rdf:about="">
        <dc:format>image/svg+xml</dc:format>
        <dc:type
           rdf:resource="http://purl.org/dc/dcmitype/StillImage" />
        <dc:title />
      </cc:Work>
    </rdf:RDF>
  </metadata>
  <g
     inkscape:label="Layer 1"
     inkscape:groupmode="layer"
     id="layer1"
     style="opacity:1" />
  <g
     inkscape:groupmode="layer"
     id="layer2"
     inkscape:label="Layer 2"
     style="display:inline;opacity:1">
    <path
       style="opacity:1;fill:#ffd42a;fill-rule:evenodd;stroke:#000000;stroke-width:10;stroke-linecap:round;stroke-linejoin:round;stroke-miterlimit:4;stroke-dasharray:none;stroke-opacity:1"
       d="m 171.60742,131.29102 -152.765623,197.80273 0,0.0371 -1.767578,447.01758 256.533201,-15.52735 a 54.043159,52.527931 0 0 1 52.57227,-40.59961 54.043159,52.527931 0 0 1 50.66406,34.35157 l 356.99609,-21.60938 -2.32226,-105.9375 c 0,0 -65.92542,-9.84002 -71.98633,-60.34765 -6.06092,-50.50763 69.21875,-63.9375 69.21875,-63.9375 L 727.23242,442.58594 358.87305,236.20898 a 89.398499,51.51778 0 0 1 -41.78321,6.01172 89.398499,51.51778 0 0 1 -89.39843,-51.51953 89.398499,51.51778 0 0 1 9.32421,-22.76562 l -65.4082,-36.64453 z m 213.875,218.79492 a 90.057747,52.955921 4.7758318 0 1 0.002,0 90.057747,52.955921 4.7758318 0 1 3.29687,0.041 90.057747,52.955921 4.7758318 0 1 94.23242,53.33985 90.057747,52.955921 4.7758318 0 1 0.0352,0.19531 l 0.23047,7.22461 a 90.057747,52.955921 4.7758318 0 1 -91.10157,45.49805 90.057747,52.955921 4.7758318 0 1 -88.48046,-56.89063 90.057747,52.955921 4.7758318 0 1 8.81835,-23.33398 90.057747,52.955921 4.7758318 0 1 72.9668,-26.07422 z M 132.14258,539.50586 a 64.64286,83.75 0 0 1 64.64258,83.75 64.64286,83.75 0 0 1 -64.64258,83.75 64.64286,83.75 0 0 1 -64.64258,-83.75 64.64286,83.75 0 0 1 64.64258,-83.75 z m 320.37304,60.66602 a 58.257088,31.31473 0 0 1 57.83594,27.06835 l 0.53906,4.2461 a 58.257088,31.31473 0 0 1 -56.27734,31.29687 58.257088,31.31473 0 0 1 -60.10156,-29.16992 58.257088,31.31473 0 0 1 52.18945,-33.2793 58.257088,31.31473 0 0 1 5.81445,-0.1621 z"
       id="path4716"
       inkscape:connector-curvature="0" />
    <path
       style="opacity:1;fill:#aa8800;fill-rule:evenodd;stroke:#000000;stroke-width:10;stroke-linecap:round;stroke-linejoin:round;stroke-miterlimit:4;stroke-dasharray:none;stroke-opacity:1"
       d="m 731.56714,626.96171 -1.09839,-34.30933 c 0,0 -47.61768,-8.45489 -57.30105,-56.73066 -1.09378,-5.45296 1.43052,-7.7113 1.43052,-7.7113 0,0 -21.88611,15.0349 -12.5422,50.1377 9.34391,35.1028 69.51112,48.61359 69.51112,48.61359 z"
       id="path4722"
       inkscape:connector-curvature="0"
       sodipodi:nodetypes="ccscsc" />
    <path
       style="display:inline;opacity:1;fill:#aa8800;fill-rule:evenodd;stroke:#000000;stroke-width:10;stroke-linecap:butt;stroke-linejoin:miter;stroke-miterlimit:4;stroke-dasharray:none;stroke-opacity:1"
       d="m 68.39286,608.79078 c 0,0 15.89285,73.21428 62.32143,73.92857 46.42857,0.71428 66.25,-56.60714 66.25,-56.60714 0.71428,53.03571 -33.03455,82.94747 -68.03572,80.35713 -38.20085,-2.82713 -61.07143,-36.07142 -60.53571,-97.67856 z"
       id="path4731"
       inkscape:connector-curvature="0"
       sodipodi:nodetypes="cscac" />
    <path
       style="display:inline;fill:#aa8800;fill-rule:evenodd;stroke:#000000;stroke-width:10;stroke-linecap:butt;stroke-linejoin:miter;stroke-miterlimit:4;stroke-dasharray:none;stroke-opacity:1"
       d="m 395,627.54078 c 0.17858,-2.14286 21.07143,20.17857 53.21429,21.25 32.14285,1.07142 62.14285,-17.50001 62.14285,-16.42858 0.71429,18.57143 -38.19432,31.97469 -60.89285,30.71429 C 427.82034,661.87465 397.14286,655.93363 395,627.54078 Z"
       id="path4778"
       inkscape:connector-curvature="0"
       sodipodi:nodetypes="cscac" />
    <path
       style="fill:#aa8800;fill-rule:evenodd;stroke:#000000;stroke-width:10;stroke-linecap:butt;stroke-linejoin:miter;stroke-miterlimit:4;stroke-dasharray:none;stroke-opacity:1"
       d="m 306.48232,401.06635 c 0,0 10.62269,-28.17418 82.32744,-26.01143 61.52958,1.85585 91.16626,28.03174 91.16626,28.03174 0,0 -5.07857,-52.9391 -88.13581,-52.52794 -100.73106,0.49865 -85.35789,50.50763 -85.35789,50.50763 z"
       id="path4785"
       inkscape:connector-curvature="0"
       sodipodi:nodetypes="cscsc" />
    <path
       style="fill:#ffdd55;fill-rule:evenodd;stroke:#000000;stroke-width:10;stroke-linecap:butt;stroke-linejoin:miter;stroke-miterlimit:4;stroke-dasharray:none;stroke-opacity:1"
       d="m 305.97724,407.88489 c 0,0 25.14214,28.98252 83.33759,30.80964 68.69647,2.15681 93.94419,-26.76904 93.94419,-26.76904 -1.06896,3.20688 -8.35089,50.60499 -93.18657,44.95179 -73.02116,-4.86592 -84.09521,-48.99239 -84.09521,-48.99239 z"
       id="path4787"
       inkscape:connector-curvature="0"
       sodipodi:nodetypes="cscsc" />
    <ellipse
       style="fill:#000000;fill-opacity:1;stroke:#000000;stroke-width:0.20692793;stroke-miterlimit:4;stroke-dasharray:none;stroke-opacity:1"
       id="path4143"
       cx="130.81476"
       cy="609.71338"
       rx="64.343254"
       ry="72.121429" />
    <ellipse
       style="fill:#000000;fill-opacity:1;stroke:#000000;stroke-width:0.20924634;stroke-miterlimit:4;stroke-dasharray:none;stroke-opacity:1"
       id="path4145"
       cx="396.68689"
       cy="406.06662"
       rx="89.797935"
       ry="29.693861" />
    <ellipse
       style="fill:#000000;fill-opacity:1;stroke:#000000;stroke-width:0.21717201;stroke-miterlimit:4;stroke-dasharray:none;stroke-opacity:1"
       id="path4147"
       cx="454.66965"
       cy="624.20905"
       rx="57.974171"
       ry="22.265276" />
  </g>
  <g
     inkscape:groupmode="layer"
     id="layer3"
     inkscape:label="Layer 3"
     style="display:inline">
    <path
       style="fill:none;fill-rule:evenodd;stroke:#000000;stroke-width:10;stroke-linecap:butt;stroke-linejoin:miter;stroke-miterlimit:4;stroke-dasharray:none;stroke-opacity:1"
       d="M 18.794643,328.96935 310.2704,375.56"
       id="path4789"
       inkscape:connector-curvature="0" />
    <path
       style="fill:none;fill-rule:evenodd;stroke:#000000;stroke-width:10;stroke-linecap:butt;stroke-linejoin:miter;stroke-miterlimit:4;stroke-dasharray:none;stroke-opacity:1"
       d="m 485.40559,403.9074 241.17392,38.70147"
       id="path4791"
       inkscape:connector-curvature="0" />
  </g>
</svg>
