<?xml version="1.0" encoding="UTF-8" standalone="no"?>
<!-- Created with Inkscape (http://www.inkscape.org/) -->

<svg
   xmlns:dc="http://purl.org/dc/elements/1.1/"
   xmlns:cc="http://creativecommons.org/ns#"
   xmlns:rdf="http://www.w3.org/1999/02/22-rdf-syntax-ns#"
   xmlns:svg="http://www.w3.org/2000/svg"
   xmlns="http://www.w3.org/2000/svg"
   xmlns:sodipodi="http://sodipodi.sourceforge.net/DTD/sodipodi-0.dtd"
   xmlns:inkscape="http://www.inkscape.org/namespaces/inkscape"
   width="210mm"
   height="297mm"
   viewBox="0 0 744.09448819 1052.3622047"
   id="svg4178"
   version="1.1"
   inkscape:version="0.91 r13725"
   sodipodi:docname="Lobster.svg">
  <defs
     id="defs4180" />
  <sodipodi:namedview
     id="base"
     pagecolor="#ffffff"
     bordercolor="#666666"
     borderopacity="1.0"
     inkscape:pageopacity="0.0"
     inkscape:pageshadow="2"
     inkscape:zoom="0.64"
     inkscape:cx="247.81528"
     inkscape:cy="118.24644"
     inkscape:document-units="px"
     inkscape:current-layer="layer4"
     showgrid="false"
     showborder="false"
     inkscape:window-width="1440"
     inkscape:window-height="897"
     inkscape:window-x="-8"
     inkscape:window-y="-8"
     inkscape:window-maximized="1" />
  <metadata
     id="metadata4183">
    <rdf:RDF>
      <cc:Work
         rdf:about="">
        <dc:format>image/svg+xml</dc:format>
        <dc:type
           rdf:resource="http://purl.org/dc/dcmitype/StillImage" />
        <dc:title />
      </cc:Work>
    </rdf:RDF>
  </metadata>
  <g
     inkscape:label="Layer 1"
     inkscape:groupmode="layer"
     id="layer1"
     style="display:inline" />
  <g
     inkscape:groupmode="layer"
     id="layer2"
     inkscape:label="legs" />
  <g
     inkscape:groupmode="layer"
     id="layer3"
     inkscape:label="Claws"
     style="display:inline" />
  <g
     inkscape:groupmode="layer"
     id="layer4"
     inkscape:label="Antaena">
    <g
       id="g4842"
       transform="matrix(0,-1.1919643,1.1919643,0,-678.79979,957.3997)">
      <path
         sodipodi:nodetypes="caassacsc"
         inkscape:connector-curvature="0"
         id="path4737"
         d="m 11.000482,844.04579 c 0,0 -13.8755135,-31.99555 -3.913621,-41.84572 11.623378,-11.49266 38.478554,-7.58153 48.769788,5.11784 11.847097,14.61953 -5.56948,45.00656 -5.870507,56.1454 -0.300903,11.13897 10.687355,41.39416 5.870507,54.94116 -4.816858,13.54725 -36.10754,22.66154 -48.769788,11.74097 -11.1386188,-9.6065 3.913621,-43.95306 3.913621,-43.95306 0,0 -7.977751,-9.48281 -6.7735935,-22.72907 1.20442,-13.24615 6.7735765,-19.41752 6.7735935,-19.41752 z"
         style="display:inline;fill:#d40000;fill-rule:evenodd;stroke:#000000;stroke-width:5.96044445;stroke-linecap:butt;stroke-linejoin:miter;stroke-miterlimit:4;stroke-dasharray:none;stroke-opacity:1" />
      <path
         sodipodi:nodetypes="csscssc"
         inkscape:connector-curvature="0"
         id="path4739"
         d="m 80.090902,864.36646 c -0.661237,-13.55881 2.374427,-25.56668 4.064157,-34.16896 3.311682,-16.85865 32.239551,-31.5601 34.018351,-1.2041 1.19668,20.41931 -2.82422,28.73673 -2.55868,35.37306 0,8.45087 4.91686,20.73441 2.55868,33.56691 -5.819,31.66725 -29.201564,16.5575 -34.018351,0.60201 -2.366788,-7.83997 -4.064157,-19.41757 -4.064157,-34.16892 z"
         style="display:inline;fill:#d40000;fill-rule:evenodd;stroke:#000000;stroke-width:5.96044445;stroke-linecap:butt;stroke-linejoin:miter;stroke-miterlimit:4;stroke-dasharray:none;stroke-opacity:1" />
      <path
         sodipodi:nodetypes="csssssc"
         inkscape:connector-curvature="0"
         id="path4741"
         d="m 136.38681,864.51702 c 0,0 -0.60196,-24.38485 8.12841,-41.54456 8.73025,-17.15968 35.22263,-17.15968 40.94234,-3.9136 5.71993,13.24595 -5.41875,35.52376 -5.41875,45.45816 0,9.93446 9.63364,30.40582 5.41875,41.54458 -4.21466,11.13875 -30.70666,17.46072 -40.94234,4.81682 -10.23577,-12.64404 -8.12841,-46.3614 -8.12841,-46.3614 z"
         style="display:inline;fill:#d40000;fill-rule:evenodd;stroke:#000000;stroke-width:5.96044445;stroke-linecap:butt;stroke-linejoin:miter;stroke-miterlimit:4;stroke-dasharray:none;stroke-opacity:1" />
      <path
         sodipodi:nodetypes="caaacsc"
         inkscape:connector-curvature="0"
         id="path4743"
         d="m 217.06767,813.94102 c 0,0 134.75628,-4.18609 191.61671,26.19115 8.9897,4.80264 20.1856,12.68806 20.28314,22.87961 0.099,10.41869 -11.1076,18.8462 -20.28314,23.7828 -57.11837,30.73031 -193.12199,23.78275 -193.12199,23.78275 0,0 -11.13882,-12.04195 -10.83756,-47.26453 0.30094,-35.22261 12.34284,-49.37178 12.34284,-49.37178 z"
         style="display:inline;fill:#d40000;fill-rule:evenodd;stroke:#000000;stroke-width:5.96044445;stroke-linecap:butt;stroke-linejoin:miter;stroke-miterlimit:4;stroke-dasharray:none;stroke-opacity:1" />
      <path
         inkscape:connector-curvature="0"
         id="path4783"
         d="m 493.42941,736.87288 c 0,0 16.25651,-31.00792 63.82214,-40.64147 47.56542,-9.63344 57.5,-6.02096 67.13364,-3.61249 9.6334,2.40828 35.82463,17.46065 35.82463,17.46065 l -31.91103,25.58916 -28.2986,-11.4399 -20.47114,24.38497 -18.66507,-6.62311 -16.85857,36.12567 19.86905,-9.33237 23.18078,12.94503 24.98687,-19.5682 25.2881,14.4504 28.29847,-23.78279 c 0,0 7.22505,42.74877 -19.26702,60.81167 -26.49233,18.06278 -56.29594,23.48154 -73.45574,23.48154 -17.15972,0 -65.62825,-14.14918 -65.62825,-14.14918 0,0 7.82722,-9.93466 2.40825,-42.44757 -5.41872,-32.51327 -16.25651,-43.65201 -16.25651,-43.65201 z"
         style="display:inline;fill:#d40000;fill-rule:evenodd;stroke:#000000;stroke-width:5.96044445;stroke-linecap:butt;stroke-linejoin:miter;stroke-miterlimit:4;stroke-dasharray:none;stroke-opacity:1" />
      <path
         inkscape:connector-curvature="0"
         id="path4783-8"
         d="m 493.91346,990.20439 c 0,0 16.25643,31.00801 63.82208,40.64161 47.56542,9.6333 57.50003,6.0209 67.13363,3.6123 9.6334,-2.4082 35.82456,-17.4606 35.82456,-17.4606 l -31.91099,-25.58909 -28.29857,11.43989 -20.4711,-24.38495 -18.66507,6.62313 -16.85867,-36.12572 19.86915,9.33235 23.18067,-12.94506 24.98695,19.56819 25.28809,-14.45033 28.29851,23.7828 c 0,0 7.22506,-42.74891 -19.26708,-60.81169 -26.49227,-18.06293 -56.29598,-23.48164 -73.45571,-23.48164 -17.15972,0 -65.62825,14.14927 -65.62825,14.14927 0,0 7.82719,9.93456 2.40823,42.44754 -5.4187,32.51336 -16.25643,43.652 -16.25643,43.652 z"
         style="display:inline;fill:#d40000;fill-rule:evenodd;stroke:#000000;stroke-width:5.96044445;stroke-linecap:butt;stroke-linejoin:miter;stroke-miterlimit:4;stroke-dasharray:none;stroke-opacity:1" />
      <path
         inkscape:connector-curvature="0"
         id="path4779-4"
         d="m 360.54939,917.65211 c 0,0 14.75117,-0.90323 24.0838,-4.21489 9.33235,-3.31143 22.87959,-12.042 22.87959,-12.042 0,0 8.73023,13.54739 13.54702,18.06293 4.81686,4.51581 20.17018,13.24633 20.17018,13.24633 l -18.66482,31.3089 c 0,0 -23.78275,-10.23559 -32.21221,-17.15973 -8.42931,-6.92414 -29.80356,-29.20154 -29.80356,-29.20154 z"
         style="display:inline;fill:#d40000;fill-rule:evenodd;stroke:#000000;stroke-width:5.96044445;stroke-linecap:butt;stroke-linejoin:miter;stroke-miterlimit:4;stroke-dasharray:none;stroke-opacity:1" />
      <path
         sodipodi:nodetypes="cccscc"
         inkscape:connector-curvature="0"
         id="path4781-5"
         d="m 447.25093,970.33517 21.37452,-54.48948 27.39528,-1.80628 c 0,0 2.50925,6.69565 -3.01047,36.12567 -3.72296,19.8508 -11.13872,32.81426 -11.13872,32.81426 z"
         style="display:inline;fill:#d40000;fill-rule:evenodd;stroke:#000000;stroke-width:5.96044445;stroke-linecap:butt;stroke-linejoin:miter;stroke-miterlimit:4;stroke-dasharray:none;stroke-opacity:1" />
      <path
         inkscape:connector-curvature="0"
         id="path4746"
         d="m 221.28224,800.99594 16.55781,0.60218 21.67525,-40.64145 -8.42923,-39.73831 31.91108,-32.81406 -42.14664,26.4921 2.70925,43.65199 z"
         style="fill:#d40000;fill-rule:evenodd;stroke:#000000;stroke-width:5.96044445;stroke-linecap:butt;stroke-linejoin:miter;stroke-miterlimit:4;stroke-dasharray:none;stroke-opacity:1" />
      <path
         inkscape:connector-curvature="0"
         id="path4748"
         d="m 248.0756,801.59812 15.95555,0.60195 32.51303,-48.76951 5.71993,-39.43733 26.49227,-36.72782 -35.52369,34.92151 -5.11774,33.71739 z"
         style="fill:#d40000;fill-rule:evenodd;stroke:#000000;stroke-width:5.96044445;stroke-linecap:butt;stroke-linejoin:miter;stroke-miterlimit:4;stroke-dasharray:none;stroke-opacity:1" />
      <path
         inkscape:connector-curvature="0"
         id="path4750"
         d="m 280.58865,802.50131 12.34312,1.50516 24.98696,-49.67286 36.42662,-18.96589 39.13615,-9.03151 -42.74873,2.10744 -43.65179,21.37431 z"
         style="fill:#d40000;fill-rule:evenodd;stroke:#000000;stroke-width:5.96044445;stroke-linecap:butt;stroke-linejoin:miter;stroke-miterlimit:4;stroke-dasharray:none;stroke-opacity:1" />
      <path
         inkscape:connector-curvature="0"
         id="path4752"
         d="m 311.29552,805.2106 18.06284,1.20419 27.69655,-42.7486 45.15713,-20.47142 42.44757,-7.22503 -45.15716,0.60216 -51.47898,19.86918 z"
         style="fill:#d40000;fill-rule:evenodd;stroke:#000000;stroke-width:5.96044445;stroke-linecap:butt;stroke-linejoin:miter;stroke-miterlimit:4;stroke-dasharray:none;stroke-opacity:1" />
      <path
         inkscape:connector-curvature="0"
         id="path4746-7"
         d="m 219.81516,926.50631 16.55779,-0.60213 21.67526,40.64142 -8.42924,39.7384 31.91111,32.8143 -42.14664,-26.4923 2.70928,-43.65217 z"
         style="fill:#d40000;fill-rule:evenodd;stroke:#000000;stroke-width:5.96044445;stroke-linecap:butt;stroke-linejoin:miter;stroke-miterlimit:4;stroke-dasharray:none;stroke-opacity:1" />
      <path
         inkscape:connector-curvature="0"
         id="path4748-0"
         d="m 246.60849,925.90418 15.95556,-0.60209 32.51302,48.76984 5.71994,39.43707 26.49229,36.7279 -35.52372,-34.9214 -5.11774,-33.71751 z"
         style="fill:#d40000;fill-rule:evenodd;stroke:#000000;stroke-width:5.96044445;stroke-linecap:butt;stroke-linejoin:miter;stroke-miterlimit:4;stroke-dasharray:none;stroke-opacity:1" />
      <path
         inkscape:connector-curvature="0"
         id="path4750-7"
         d="m 279.12159,925.00118 12.34308,-1.5054 24.98696,49.67293 36.42661,18.96612 39.13619,9.03137 -42.74867,-2.10734 -43.65189,-21.37451 z"
         style="fill:#d40000;fill-rule:evenodd;stroke:#000000;stroke-width:5.96044445;stroke-linecap:butt;stroke-linejoin:miter;stroke-miterlimit:4;stroke-dasharray:none;stroke-opacity:1" />
      <path
         inkscape:connector-curvature="0"
         id="path4752-1"
         d="m 309.82842,922.29167 18.06285,-1.20412 27.69654,42.74856 45.15713,20.47137 42.44756,7.22505 -45.15711,-0.60218 -51.47901,-19.86894 z"
         style="fill:#d40000;fill-rule:evenodd;stroke:#000000;stroke-width:5.96044445;stroke-linecap:butt;stroke-linejoin:miter;stroke-miterlimit:4;stroke-dasharray:none;stroke-opacity:1" />
      <path
         inkscape:connector-curvature="0"
         id="path4779"
         d="m 360.06537,809.42533 c 0,0 14.7513,0.90299 24.0838,4.21477 9.33233,3.31143 22.87965,12.04185 22.87965,12.04185 0,0 8.73024,-13.54722 13.54698,-18.0629 4.81682,-4.51577 20.17017,-13.24613 20.17017,-13.24613 l -18.66476,-31.30893 c 0,0 -23.78285,10.2356 -32.21214,17.15966 -8.42947,6.92413 -29.8037,29.20168 -29.8037,29.20168 z"
         style="display:inline;fill:#d40000;fill-rule:evenodd;stroke:#000000;stroke-width:5.96044445;stroke-linecap:butt;stroke-linejoin:miter;stroke-miterlimit:4;stroke-dasharray:none;stroke-opacity:1" />
      <path
         sodipodi:nodetypes="cccscc"
         inkscape:connector-curvature="0"
         id="path4781"
         d="m 446.76692,756.74209 21.37458,54.48943 27.39518,1.80628 c 0,0 2.5093,-6.69548 -3.01047,-36.12559 -3.72292,-19.85069 -11.13869,-32.81425 -11.13869,-32.81425 z"
         style="display:inline;fill:#d40000;fill-rule:evenodd;stroke:#000000;stroke-width:5.96044445;stroke-linecap:butt;stroke-linejoin:miter;stroke-miterlimit:4;stroke-dasharray:none;stroke-opacity:1" />
      <path
         inkscape:connector-curvature="0"
         id="path4807"
         d="m 434.06274,855.53349 1.70283,5.10888 54.28271,-16.17826 147.37977,11.62352 61.11268,-34.31927 -64.4241,29.20156 -140.89041,-13.54719 z"
         style="fill:#d40000;fill-rule:evenodd;stroke:#000000;stroke-width:5.96044445;stroke-linecap:butt;stroke-linejoin:miter;stroke-miterlimit:4;stroke-dasharray:none;stroke-opacity:1" />
      <path
         inkscape:connector-curvature="0"
         id="path4807-3"
         d="m 434.06274,873.11671 1.70283,-5.10888 54.28271,16.17836 147.37977,-11.62359 61.11268,34.31948 -64.4241,-29.20155 -140.89041,13.54699 z"
         style="fill:#d40000;fill-rule:evenodd;stroke:#000000;stroke-width:5.96044445;stroke-linecap:butt;stroke-linejoin:miter;stroke-miterlimit:4;stroke-dasharray:none;stroke-opacity:1" />
    </g>
  </g>
</svg>
